<svg xmlns="http://www.w3.org/2000/svg" version="1.1" xmlns:xlink="http://www.w3.org/1999/xlink" xmlns:svgjs="http://svgjs.dev/svgjs" width="1000" height="1000" viewBox="0 0 1000 1000"><rect width="1000" height="1000" fill="#dedede"></rect><g transform="matrix(0.4679144385026738,0,0,0.4679144385026738,265.7651161225302,150.28340080971657)"><svg viewBox="0 0 165 247" data-background-color="#dedede" preserveAspectRatio="xMidYMid meet" height="1496" width="1000" xmlns="http://www.w3.org/2000/svg" xmlns:xlink="http://www.w3.org/1999/xlink"><g id="tight-bounds" transform="matrix(1,0,0,1,0.09791248044950862,-0.09999999999999432)"><svg viewBox="0 0 164.80417503910098 247.2" height="247.2" width="164.80417503910098"><g><svg viewBox="0 0 247.20000000000005 370.79060640000006" height="247.2" width="164.80417503910098"><g><svg viewBox="0 0 247.20000000000005 370.79060640000006" height="370.79060640000006" width="247.20000000000005"><g id="textblocktransform"><svg viewBox="0 0 247.20000000000005 370.79060640000006" height="370.79060640000006" width="247.20000000000005" id="textblock"><g><rect width="247.20000000000005" height="247.20000000000005" fill="none" stroke-width="9.018103199999999" stroke="#374151" data-fill-palette-color="none" data-stroke-palette-color="tertiary"></rect><rect width="247.20000000000005" height="123.59060640000003" y="247.20000000000005" fill="#374151" data-fill-palette-color="tertiary"></rect></g><g><svg viewBox="0 0 247.20000000000005 247.20000000000005" height="247.20000000000005" width="247.20000000000005"><g transform="matrix(1,0,0,1,23.607599999999998,23.607600000000012)"><svg width="199.98480000000004" viewBox="0 -50 43.75 43.75" height="199.98480000000004" data-palette-color="#374151"><path d="M12.5-6.25L0-6.25 0-37.5 6.25-37.5 6.25-43.75 12.5-43.75 12.5-50 31.25-50 31.25-43.75 37.5-43.75 37.5-37.5 43.75-37.5 43.75-6.25 31.25-6.25 31.25-18.75 12.5-18.75 12.5-6.25ZM12.5-37.5L12.5-25 31.25-25 31.25-37.5 25-37.5 25-43.75 18.75-43.75 18.75-37.5 12.5-37.5Z" opacity="1" transform="matrix(1,0,0,1,0,0)" fill="#374151" class="wordmark-text-0" data-fill-palette-color="primary" id="text-0"></path></svg></g></svg></g></svg></g></svg></g></svg></g><defs></defs></svg><rect width="164.80417503910098" height="247.2" fill="none" stroke="none" visibility="hidden"></rect></g></svg></g></svg>